<svg width="240" height="20" viewBox="0 0 240 20" fill="none" xmlns="http://www.w3.org/2000/svg">
<path d="M5.48868 0.480713C6.57926 0.480713 9.18057 0.589556 10.9595 2.33105C11.9696 3.31064 12.7384 4.92516 12.7384 7.07482C12.7384 10.4762 11.2992 12.1451 10.6377 12.7982C9.02861 14.4127 6.86532 14.9932 3.86174 14.9932H0L1.76103 0.480713H5.49762H5.48868ZM3.08403 12.5623H4.03159C5.91776 12.5623 7.48212 12.1905 8.55483 10.9932C9.45769 9.99545 9.85995 8.48978 9.85995 7.13831C9.85995 6.33105 9.69011 5.02493 8.6174 4.04534C7.4553 3.00225 5.84625 2.91155 5.09535 2.91155H4.23719L3.07509 12.5533L3.08403 12.5623Z" fill="#B71B26"/>
<path d="M23.2777 12.4714C22.8039 13.451 22.053 14.231 21.3021 14.6664C20.3814 15.1925 19.3534 15.3013 18.5131 15.3013C17.2705 15.3013 16.0459 15.0655 15.0626 13.9952C14.5441 13.451 13.9452 12.4895 13.9452 10.9476C13.9452 9.31492 14.5262 7.68227 15.5542 6.65732C16.7342 5.46004 18.1287 5.2605 19.264 5.2605C20.3993 5.2605 21.5346 5.47818 22.4374 6.34893C23.4475 7.32853 23.6353 8.61651 23.6353 9.76843C23.6353 10.1585 23.6353 10.4396 23.5906 10.7299H16.6359C16.5286 11.6006 16.7878 12.2356 17.1722 12.6256C17.646 13.1244 18.227 13.2151 18.6919 13.2151C19.0137 13.2151 19.6126 13.197 20.1043 12.9068C20.4887 12.6709 20.8105 12.2718 21.0071 11.9272L23.2598 12.4714H23.2777ZM21.3468 9.03374C21.3289 8.48952 21.0876 7.96345 20.7658 7.66413C20.3993 7.31945 19.845 7.13805 19.3087 7.13805C18.6025 7.13805 18.084 7.41923 17.7175 7.74576C17.3957 8.05415 17.0918 8.50766 16.9487 9.03374H21.3468Z" fill="#B71B26"/>
<path d="M30.0179 7.86405C29.8212 7.6645 29.6335 7.51938 29.3564 7.38332C29.0793 7.25634 28.8379 7.19285 28.4803 7.19285C28.3731 7.19285 27.8546 7.21099 27.6043 7.50124C27.5149 7.61008 27.4076 7.78242 27.4076 8.0636C27.4076 8.26314 27.4523 8.40827 27.6043 8.54432C27.7563 8.67131 27.944 8.76201 28.3552 8.88899L29.1508 9.15203C29.6692 9.32437 30.2414 9.6509 30.59 10.0046C31.1263 10.567 31.2336 11.2926 31.2336 11.7915C31.2336 12.8799 30.8045 13.66 30.2682 14.2042C29.3027 15.1838 28.0781 15.3108 27.2199 15.3108C26.2723 15.3108 25.5661 15.1112 25.0298 14.8572C24.556 14.6214 24.0018 14.1588 23.6174 13.7507L25.1818 12.1362C25.3963 12.4446 25.7002 12.7257 26.0399 12.9253C26.3617 13.0976 26.7461 13.2337 27.1126 13.2337C27.4523 13.2337 27.8814 13.143 28.1228 12.9525C28.3373 12.7802 28.4893 12.4718 28.4893 12.1271C28.4893 11.9548 28.4446 11.7371 28.2569 11.5375C28.0602 11.3652 27.7384 11.2291 27.3361 11.084L26.6925 10.821C26.3081 10.6668 25.8522 10.4491 25.4678 10.0591C25.0387 9.62369 24.8421 9.17017 24.8421 8.44455C24.8421 7.51031 25.2265 6.72119 25.7628 6.20419C26.2992 5.67811 27.1573 5.28809 28.3999 5.28809C28.9988 5.28809 29.6871 5.37879 30.2235 5.59648C30.6347 5.75067 31.0816 6.03185 31.3856 6.24954L30.0358 7.88219L30.0179 7.86405Z" fill="#B71B26"/>
<path d="M37.0262 5.56916L35.8909 14.9932H33.2718L34.407 5.56916H37.0262ZM35.1401 0.544218C35.5691 0.090703 36.0429 0 36.3826 0C36.7938 0 37.1335 0.154195 37.3659 0.390023C37.6252 0.653061 37.7771 1.02494 37.7771 1.41497C37.7771 1.7415 37.6699 2.22222 37.2586 2.63039C36.8743 3.02041 36.4184 3.1746 36.0161 3.1746C35.6138 3.1746 35.2831 3.02041 35.0328 2.78458C34.7735 2.52154 34.6216 2.22222 34.6216 1.78685C34.6216 1.35147 34.7735 0.9161 35.1401 0.544218Z" fill="#B71B26"/>
<path d="M46.7253 5.56889H49.3444L48.2539 14.5576C48.1287 15.6641 47.9499 17.4782 46.8415 18.6301C46.1532 19.3467 44.8927 19.9997 42.8546 19.9997C41.7372 19.9997 40.3695 19.8002 39.3772 18.739C38.7783 18.104 38.3492 17.1244 38.2419 16.1086H40.9863C41.031 16.4986 41.2187 16.9793 41.5226 17.2605C41.7551 17.4963 42.211 17.7412 42.935 17.7412C43.7485 17.7412 44.3474 17.4782 44.7408 17.1063C45.3218 16.5439 45.4916 15.6913 45.581 15.0564L45.7509 13.7322C45.6436 13.8863 45.2324 14.4487 44.5888 14.8387C44.0524 15.1653 43.4714 15.2922 42.8546 15.2922C41.7193 15.2922 40.6645 15.0111 39.8063 14.1403C39.118 13.4419 38.5816 12.3353 38.5816 10.7662C38.5816 8.97932 39.27 7.50086 40.2533 6.56662C40.8969 5.9317 41.9696 5.2605 43.5608 5.2605C44.4011 5.2605 45.0447 5.43283 45.5095 5.71401C45.8313 5.91356 46.2604 6.24009 46.5822 6.78431L46.7342 5.56889H46.7253ZM42.1752 8.28998C41.5495 8.85234 41.2723 9.75029 41.2723 10.5576C41.2723 11.4283 41.6567 11.9907 41.9607 12.299C42.4523 12.7979 43.0512 12.9521 43.5876 12.9521C44.6424 12.9521 45.2592 12.5621 45.581 12.2537C46.1353 11.7095 46.4839 10.8206 46.4839 9.96798C46.4839 9.11537 46.0995 8.53487 45.7777 8.22648C45.3933 7.88181 44.7944 7.61877 44.0435 7.61877C43.1228 7.61877 42.5238 7.96345 42.1752 8.28998Z" fill="#B71B26"/>
<path d="M51.615 5.56889H54.2342L54.0822 6.78431C54.3415 6.36707 54.708 6.00426 55.2175 5.69587C55.7539 5.38748 56.2902 5.2605 57.0232 5.2605C58.2658 5.2605 59.0435 5.65052 59.5083 6.13125C60.1073 6.76617 60.2414 7.54621 60.2414 8.19927C60.2414 8.72535 60.152 9.16072 60.0715 9.81379L59.4458 14.9929H56.8266L57.3629 10.621C57.3808 10.4215 57.4881 9.46911 57.4881 9.11537C57.4881 8.46231 57.2557 8.09043 57.059 7.91809C56.8623 7.71855 56.5048 7.52807 55.9237 7.52807C55.1728 7.52807 54.7259 7.83646 54.4666 8.09043C53.975 8.61651 53.7604 9.5054 53.671 10.1766L53.09 14.9839H50.4708L51.6061 5.55982L51.615 5.56889Z" fill="#B71B26"/>
<path d="M71.6567 6.09523H77.7086L78.3969 0.480713H81.1859L79.4249 15.0023H76.6359L77.4046 8.53514H71.3528L70.584 15.0023H67.795L69.556 0.480713H72.345L71.6567 6.09523Z" fill="#B71B26"/>
<path d="M91.7163 6.62097C92.3153 7.25589 92.9142 8.27176 92.9142 9.75929C92.9142 10.9566 92.5477 12.4622 91.2604 13.723C90.0358 14.9021 88.6412 15.3103 86.9875 15.3103C85.6555 15.3103 84.413 15.0291 83.4029 14.0042C82.7145 13.333 82.1782 12.2808 82.1782 10.8024C82.1782 9.32392 82.8397 7.80011 83.7873 6.86587C84.5381 6.1221 85.8701 5.27856 88.0334 5.27856C89.857 5.27856 90.9923 5.91348 91.6985 6.63004L91.7163 6.62097ZM89.2938 12.1266C89.8302 11.5824 90.1699 10.757 90.1699 10.0133C90.1699 9.42369 89.9374 8.70714 89.4815 8.27176C89.0524 7.85453 88.4088 7.6187 87.7831 7.6187C87.0501 7.6187 86.326 7.89988 85.8075 8.3806C85.1639 8.98831 84.8868 9.88627 84.8868 10.621C84.8868 11.1833 85.1192 11.8636 85.5304 12.2718C85.9595 12.7071 86.6478 12.943 87.2467 12.943C87.9529 12.943 88.7306 12.6799 89.2849 12.1176L89.2938 12.1266Z" fill="#B71B26"/>
<path d="M97.4821 5.56909L96.9279 10.2766C96.8385 11.0385 96.8206 11.2743 96.8206 11.4104C96.8206 12.0181 97.0173 12.3718 97.205 12.5623C97.4821 12.8707 97.9738 13.043 98.5101 13.043C99.1716 13.043 99.6454 12.8072 99.9493 12.5169C100.441 12.0362 100.548 11.3832 100.656 10.5396L101.254 5.57816H103.874L103.248 10.7845C103.033 12.526 102.622 13.8775 101.228 14.6847C100.387 15.1655 99.3415 15.3197 98.4565 15.3197C97.2944 15.3197 96.1412 15.0566 95.3903 14.5124C94.8987 14.1405 94.1478 13.3605 94.1478 11.9183C94.1478 11.5464 94.1925 11.111 94.2729 10.4398L94.854 5.58723H97.4732L97.4821 5.56909Z" fill="#B71B26"/>
<path d="M110.551 7.86405C110.355 7.6645 110.167 7.51938 109.89 7.38332C109.613 7.25634 109.371 7.19285 109.014 7.19285C108.906 7.19285 108.388 7.21099 108.138 7.50124C108.048 7.61008 107.941 7.78242 107.941 8.0636C107.941 8.26314 107.986 8.40827 108.138 8.54432C108.29 8.67131 108.477 8.76201 108.889 8.88899L109.684 9.15203C110.203 9.32437 110.775 9.6509 111.123 10.0046C111.66 10.567 111.767 11.2926 111.767 11.7915C111.767 12.8799 111.338 13.66 110.802 14.2042C109.836 15.1838 108.611 15.3108 107.753 15.3108C106.806 15.3108 106.1 15.1112 105.563 14.8572C105.089 14.6214 104.535 14.1588 104.151 13.7507L105.715 12.1362C105.93 12.4446 106.234 12.7257 106.573 12.9253C106.895 13.0976 107.28 13.2337 107.646 13.2337C107.986 13.2337 108.415 13.143 108.656 12.9525C108.871 12.7802 109.023 12.4718 109.023 12.1271C109.023 11.9548 108.978 11.7371 108.79 11.5375C108.594 11.3652 108.272 11.2291 107.869 11.084L107.226 10.821C106.841 10.6668 106.386 10.4491 106.001 10.0591C105.572 9.62369 105.375 9.17017 105.375 8.44455C105.375 7.51031 105.76 6.72119 106.296 6.20419C106.833 5.67811 107.691 5.28809 108.933 5.28809C109.532 5.28809 110.221 5.37879 110.757 5.59648C111.168 5.75067 111.615 6.03185 111.919 6.24954L110.569 7.88219L110.551 7.86405Z" fill="#B71B26"/>
<path d="M122.396 12.4714C121.922 13.451 121.171 14.231 120.42 14.6664C119.499 15.1925 118.471 15.3013 117.631 15.3013C116.389 15.3013 115.164 15.0655 114.181 13.9952C113.662 13.451 113.063 12.4895 113.063 10.9476C113.063 9.31492 113.644 7.68227 114.672 6.65732C115.852 5.46004 117.247 5.2605 118.382 5.2605C119.517 5.2605 120.653 5.47818 121.555 6.34893C122.566 7.32853 122.753 8.61651 122.753 9.76843C122.753 10.1585 122.753 10.4396 122.709 10.7299H115.754C115.647 11.6006 115.906 12.2356 116.29 12.6256C116.764 13.1244 117.345 13.2151 117.81 13.2151C118.132 13.2151 118.731 13.197 119.222 12.9068C119.607 12.6709 119.928 12.2718 120.125 11.9272L122.378 12.4714H122.396ZM120.465 9.03374C120.447 8.48952 120.206 7.96345 119.884 7.66413C119.517 7.31945 118.963 7.13805 118.427 7.13805C117.72 7.13805 117.202 7.41923 116.835 7.74576C116.514 8.05415 116.21 8.50766 116.067 9.03374H120.465Z" fill="#B71B26"/>
<path d="M135.948 0.480713C137.038 0.480713 138.459 0.634908 139.505 1.74148C139.997 2.26756 140.516 3.13831 140.516 4.52606C140.516 5.91382 140.024 6.98412 139.336 7.66439C138.692 8.29931 137.637 8.77096 136.698 8.92516L140.346 15.0023H137.002L133.892 9.17006H133.552L132.846 15.0023H130.057L131.818 0.480713H135.956H135.948ZM133.784 7.16552H134.768C135.518 7.16552 136.466 6.94783 137.002 6.40362C137.262 6.14058 137.628 5.62357 137.628 4.75282C137.628 4.33559 137.539 3.77323 137.047 3.33786C136.707 3.02947 136.126 2.79364 135.206 2.79364H134.33L133.793 7.17459L133.784 7.16552Z" fill="#B71B26"/>
<path d="M150.822 12.4714C150.349 13.451 149.598 14.231 148.847 14.6664C147.926 15.1925 146.898 15.3013 146.058 15.3013C144.815 15.3013 143.591 15.0655 142.607 13.9952C142.089 13.451 141.49 12.4895 141.49 10.9476C141.49 9.31492 142.071 7.68227 143.099 6.65732C144.279 5.46004 145.673 5.2605 146.809 5.2605C147.944 5.2605 149.079 5.47818 149.982 6.34893C150.992 7.32853 151.18 8.61651 151.18 9.76843C151.18 10.1585 151.18 10.4396 151.135 10.7299H144.181C144.073 11.6006 144.333 12.2356 144.717 12.6256C145.191 13.1244 145.772 13.2151 146.237 13.2151C146.558 13.2151 147.157 13.197 147.649 12.9068C148.033 12.6709 148.355 12.2718 148.552 11.9272L150.805 12.4714H150.822ZM148.892 9.03374C148.874 8.48952 148.632 7.96345 148.31 7.66413C147.944 7.31945 147.39 7.13805 146.853 7.13805C146.147 7.13805 145.629 7.41923 145.262 7.74576C144.94 8.05415 144.636 8.50766 144.493 9.03374H148.892Z" fill="#B71B26"/>
<path d="M153.156 5.56889H155.775L155.623 6.78431C155.882 6.36707 156.249 6.00426 156.758 5.69587C157.294 5.38748 157.831 5.2605 158.564 5.2605C159.806 5.2605 160.584 5.65052 161.049 6.13125C161.648 6.76617 161.782 7.54621 161.782 8.19927C161.782 8.72535 161.692 9.16072 161.612 9.81379L160.986 14.9929H158.367L158.903 10.621C158.921 10.4215 159.029 9.46911 159.029 9.11537C159.029 8.46231 158.796 8.09043 158.6 7.91809C158.403 7.71855 158.045 7.52807 157.464 7.52807C156.713 7.52807 156.266 7.83646 156.007 8.09043C155.515 8.61651 155.301 9.5054 155.212 10.1766L154.631 14.9839H152.011L153.147 5.55982L153.156 5.56889Z" fill="#B71B26"/>
<path d="M172.509 6.62097C173.108 7.25589 173.707 8.27176 173.707 9.75929C173.707 10.9566 173.34 12.4622 172.053 13.723C170.828 14.9021 169.434 15.3103 167.78 15.3103C166.448 15.3103 165.206 15.0291 164.195 14.0042C163.507 13.333 162.971 12.2808 162.971 10.8024C162.971 9.32392 163.632 7.80011 164.58 6.86587C165.331 6.1221 166.663 5.27856 168.826 5.27856C170.65 5.27856 171.785 5.91348 172.491 6.63004L172.509 6.62097ZM170.086 12.1266C170.623 11.5824 170.962 10.757 170.962 10.0133C170.962 9.42369 170.73 8.70714 170.274 8.27176C169.845 7.85453 169.201 7.6187 168.576 7.6187C167.843 7.6187 167.119 7.89988 166.6 8.3806C165.957 8.98831 165.679 9.88627 165.679 10.621C165.679 11.1833 165.912 11.8636 166.323 12.2718C166.752 12.7071 167.44 12.943 168.039 12.943C168.746 12.943 169.523 12.6799 170.077 12.1176L170.086 12.1266Z" fill="#B71B26"/>
<path d="M176.818 5.56909L178.623 10.8843L181.716 5.56909H184.72L178.838 14.9931H177.595L173.993 5.56909H176.827H176.818Z" fill="#B71B26"/>
<path d="M192.524 5.5691H195.143L194.008 14.9931H191.389L191.541 13.7777C191.067 14.4126 190.53 14.7392 190.361 14.848C189.806 15.1745 189.27 15.3015 188.626 15.3015C187.509 15.3015 186.463 14.9931 185.578 14.1042C184.675 13.1881 184.336 12.0362 184.336 10.7754C184.336 9.0793 184.89 7.68247 185.775 6.74823C186.526 5.96819 187.723 5.26978 189.44 5.26978C190.101 5.26978 190.682 5.39676 191.281 5.72329C191.8 6.00447 192.122 6.35821 192.372 6.79358L192.524 5.57817V5.5691ZM187.974 8.29018C187.375 8.85254 187.053 9.68701 187.053 10.4671C187.053 11.2925 187.357 11.9455 187.759 12.3355C188.144 12.7074 188.707 12.9432 189.476 12.9432C189.994 12.9432 190.7 12.8344 191.317 12.272C191.943 11.7097 192.238 10.8117 192.238 10.0045C192.238 9.33327 191.979 8.7437 191.594 8.32646C191.29 7.99993 190.736 7.60991 189.788 7.60991C189.127 7.60991 188.501 7.80946 187.965 8.28111L187.974 8.29018Z" fill="#B71B26"/>
<path d="M201.472 7.83665L200.614 15.0022H197.995L198.853 7.83665H197.825L198.102 5.56908H199.13L199.514 2.34912H202.134L201.749 5.56908H203.555L203.278 7.83665H201.472Z" fill="#B71B26"/>
<path d="M208.185 5.56916L207.05 14.9932H204.431L205.566 5.56916H208.185ZM206.299 0.544218C206.728 0.090703 207.202 0 207.542 0C207.953 0 208.293 0.154195 208.525 0.390023C208.784 0.653061 208.936 1.02494 208.936 1.41497C208.936 1.7415 208.829 2.22222 208.418 2.63039C208.033 3.02041 207.577 3.1746 207.175 3.1746C206.773 3.1746 206.442 3.02041 206.192 2.78458C205.933 2.52154 205.781 2.22222 205.781 1.78685C205.781 1.35147 205.933 0.9161 206.299 0.544218Z" fill="#B71B26"/>
<path d="M218.957 6.62097C219.556 7.25589 220.155 8.27176 220.155 9.75929C220.155 10.9566 219.788 12.4622 218.501 13.723C217.277 14.9021 215.882 15.3103 214.228 15.3103C212.896 15.3103 211.654 15.0291 210.644 14.0042C209.955 13.333 209.419 12.2808 209.419 10.8024C209.419 9.32392 210.08 7.80011 211.028 6.86587C211.779 6.1221 213.111 5.27856 215.274 5.27856C217.098 5.27856 218.233 5.91348 218.939 6.63004L218.957 6.62097ZM216.535 12.1266C217.071 11.5824 217.411 10.757 217.411 10.0133C217.411 9.42369 217.178 8.70714 216.722 8.27176C216.293 7.85453 215.65 7.6187 215.024 7.6187C214.291 7.6187 213.567 7.89988 213.048 8.3806C212.405 8.98831 212.128 9.88627 212.128 10.621C212.128 11.1833 212.36 11.8636 212.771 12.2718C213.2 12.7071 213.889 12.943 214.487 12.943C215.194 12.943 215.971 12.6799 216.526 12.1176L216.535 12.1266Z" fill="#B71B26"/>
<path d="M222.515 5.56889H225.134L224.982 6.78431C225.241 6.36707 225.608 6.00426 226.117 5.69587C226.654 5.38748 227.19 5.2605 227.923 5.2605C229.166 5.2605 229.943 5.65052 230.408 6.13125C231.007 6.76617 231.141 7.54621 231.141 8.19927C231.141 8.72535 231.052 9.16072 230.971 9.81379L230.346 14.9929H227.726L228.263 10.621C228.281 10.4215 228.388 9.46911 228.388 9.11537C228.388 8.46231 228.156 8.09043 227.959 7.91809C227.762 7.71855 227.405 7.52807 226.824 7.52807C226.073 7.52807 225.626 7.83646 225.367 8.09043C224.875 8.61651 224.66 9.5054 224.571 10.1766L223.99 14.9839H221.371L222.506 5.55982L222.515 5.56889Z" fill="#B71B26"/>
<path d="M238.632 7.86405C238.436 7.6645 238.248 7.51938 237.971 7.38332C237.694 7.25634 237.452 7.19285 237.095 7.19285C236.987 7.19285 236.469 7.21099 236.219 7.50124C236.129 7.61008 236.022 7.78242 236.022 8.0636C236.022 8.26314 236.067 8.40827 236.219 8.54432C236.371 8.67131 236.558 8.76201 236.97 8.88899L237.765 9.15203C238.284 9.32437 238.856 9.6509 239.204 10.0046C239.741 10.567 239.848 11.2926 239.848 11.7915C239.848 12.8799 239.419 13.66 238.883 14.2042C237.917 15.1838 236.692 15.3108 235.834 15.3108C234.887 15.3108 234.181 15.1112 233.644 14.8572C233.17 14.6214 232.616 14.1588 232.232 13.7507L233.796 12.1362C234.011 12.4446 234.315 12.7257 234.654 12.9253C234.976 13.0976 235.361 13.2337 235.727 13.2337C236.067 13.2337 236.496 13.143 236.737 12.9525C236.952 12.7802 237.104 12.4718 237.104 12.1271C237.104 11.9548 237.059 11.7371 236.871 11.5375C236.675 11.3652 236.353 11.2291 235.951 11.084L235.307 10.821C234.923 10.6668 234.467 10.4491 234.082 10.0591C233.653 9.62369 233.456 9.17017 233.456 8.44455C233.456 7.51031 233.841 6.72119 234.377 6.20419C234.914 5.67811 235.772 5.28809 237.014 5.28809C237.613 5.28809 238.302 5.37879 238.838 5.59648C239.249 5.75067 239.696 6.03185 240 6.24954L238.65 7.88219L238.632 7.86405Z" fill="#B71B26"/>
</svg>
